<?xml version="1.0" encoding="iso-8859-1"?>
<!DOCTYPE svg PUBLIC "-//W3C//DTD SVG 1.1//EN" "http://www.w3.org/Graphics/SVG/1.1/DTD/svg11.dtd">
<svg version="1.1" transform="scale(-1, 1)" id="Capa_1" xmlns="http://www.w3.org/2000/svg" xmlns:xlink="http://www.w3.org/1999/xlink" x="0px" y="0px"
	 width="765.697px" height="765.697px" viewBox="0 0 765.697 765.697" style="enable-background:new 0 0 765.697 765.697;"
	 xml:space="preserve">
<g>
	<g>
		<path d="M554.031,179.696C515.235,112.475,442.862,70.719,365.158,70.719c-38.028,0-75.63,10.107-108.748,29.228
			c-104.016,60.069-139.779,193.576-79.722,297.608c38.813,67.217,111.18,108.973,188.873,108.973
			c38.028,0,75.63-10.107,108.742-29.223c50.399-29.098,86.442-76.078,101.499-132.295
			C590.859,288.802,583.129,230.096,554.031,179.696z M554.148,339.213c-13.509,50.428-45.842,92.576-91.056,118.674
			c-29.709,17.16-63.438,26.223-97.531,26.223c-69.705,0-134.633-37.461-169.455-97.76c-53.875-93.321-21.794-213.1,71.515-266.985
			c29.709-17.159,63.438-26.223,97.53-26.223c69.722,0,134.651,37.461,169.456,97.766
			C560.712,236.116,567.652,288.791,554.148,339.213z"/>
		<path d="M680.945,637.443l-94.48-163.637c77.815-92.816,89.604-224.159,28.807-329.47C563.863,55.304,467.997,0,365.085,0
			c-50.36,0-100.16,13.386-144.018,38.701C83.284,118.266,35.901,295.103,115.443,432.91
			c51.324,88.891,147.111,144.117,249.984,144.117c16.654,0,33.348-1.451,49.743-4.322l94.487,163.643
			c10.438,18.1,29.922,29.35,50.848,29.35c10.252,0,20.387-2.719,29.311-7.869l69.654-40.221
			c13.583-7.836,23.297-20.492,27.35-35.629C690.884,666.84,688.793,651.02,680.945,637.443z M665.166,676.178
			c-2.506,9.344-8.509,17.164-16.9,22.008l-69.654,40.219c-5.521,3.184-11.783,4.871-18.105,4.871
			c-12.938,0-24.979-6.945-31.431-18.133L430.608,554.6c-2.029-3.514-5.757-5.605-9.703-5.605c-0.745,0-1.502,0.078-2.247,0.23
			c-17.456,3.57-35.365,5.381-53.225,5.381c-94.89,0-183.239-50.926-230.566-132.906C61.507,294.599,105.208,131.5,232.285,58.129
			c40.45-23.364,86.375-35.707,132.801-35.707c94.924,0,183.351,51.016,230.768,133.125
			c57.316,99.285,44.671,223.672-31.469,309.532c-3.201,3.615-3.733,8.867-1.317,13.043l98.467,170.537
			C666.382,657.053,667.671,666.822,665.166,676.178z"/>
		<path d="M471.097,315.737l-1.166-0.454c-3.156-1.637-47.905-22.635-64.722-30.942v-7.635
			c11.211-7.618,12.332-16.777,12.579-26.301c5.97-4.064,10.768-11.407,12.113-20.371l0.303-0.74
			c1.502-10.275-1.44-19.676-7.22-25.164l1.021-9.927c0.033-0.359,0.078-0.729,0.078-1.093c0-22.557-17.843-54.323-57.53-54.323
			s-57.541,31.766-57.541,54.323c0,0.37,0.022,0.746,0.056,1.11l0.992,9.928c-0.908,0.846-1.749,1.793-2.517,2.831
			c-4.294,5.791-6.037,13.941-4.781,22.327l0.095,0.639c1.323,9.008,5.886,16.385,11.873,20.455
			c0.247,9.546,6.39,18.711,11.996,26.318v7.562c-28.028,11.929-62.02,29.16-65.713,31.626c-0.549,0.359-0.937,0.74-1.732,1.177
			c-5.51,3.027-16.643,9.322-16.643,22.203v50.361c0,6.188,4.188,10.016,10.381,10.016h227.108c6.188,0,9.159-3.828,9.159-10.016
			v-50.361C489.292,325.238,476.355,318.338,471.097,315.737z M466.871,377.247H265.071v-37.092c0-1.082,3.503-2.629,4.933-3.414
			c1.44-0.79,2.517-1.519,3.257-2.012c4.098-2.416,44.754-21.621,69.391-33.157c3.941-1.844,6.508-5.802,6.508-10.157v-19.603
			c0-3.352-1.654-6.519-4.238-8.649c-2.904-2.394-7.848-7.354-7.848-13.661c0-0.364-0.056-0.729-0.095-1.093l-0.695-6.873
			c-0.499-5.095-4.384-9.148-9.333-9.967c-0.532-0.633-1.502-2.214-1.895-4.882l-0.101-0.667c-0.336-2.22-0.05-3.98,0.275-4.955
			c1.917-0.583,3.666-1.682,5.04-3.201c2.125-2.343,3.156-5.488,2.842-8.633l-1.659-16.631c0.252-12.355,9.877-31.402,35.119-31.402
			c25.247,0,34.866,19.047,35.118,31.408l-1.631,16.643c-0.309,3.15,0.818,6.278,2.948,8.621c1.323,1.463,3.038,2.534,4.905,3.133
			c0.336,0.964,0.645,2.741,0.319,4.961l-0.106,0.689c-0.381,2.512-1.334,4.215-1.934,4.933c-4.916,0.824-8.768,4.849-9.283,9.916
			l-0.7,6.873c-0.04,0.375-0.057,0.762-0.057,1.138c0,6.295-5.634,11.273-8.531,13.672c-2.567,2.13-4.821,5.292-4.821,8.633v19.597
			c0,4.322,3.251,8.257,7.147,10.118c26.771,12.78,67.938,32.299,70.612,33.684l0.427,0.628c3.604,1.782,5.896,3.189,5.896,4.198
			v37.204H466.871z"/>
	</g>
</g>
</svg>
